<svg width="45" height="45" viewBox="0 0 45 45" fill="none" xmlns="http://www.w3.org/2000/svg">
<path d="M30 13.125C30 12.0895 30.8395 11.25 31.875 11.25C32.9106 11.25 33.75 12.0895 33.75 13.125C33.75 14.1606 32.9106 15 31.875 15C30.8395 15 30 14.1606 30 13.125Z" fill="#5D6FF3"/>
<path fill-rule="evenodd" clip-rule="evenodd" d="M22.5 13.5938C17.5813 13.5938 13.5938 17.5812 13.5938 22.5C13.5938 27.4188 17.5813 31.4063 22.5 31.4063C27.4188 31.4063 31.4063 27.4188 31.4063 22.5C31.4063 17.5812 27.4188 13.5938 22.5 13.5938ZM16.4063 22.5C16.4063 19.1345 19.1346 16.4063 22.5 16.4063C25.8655 16.4063 28.5938 19.1345 28.5938 22.5C28.5938 25.8655 25.8655 28.5938 22.5 28.5938C19.1346 28.5938 16.4063 25.8655 16.4063 22.5Z" fill="#5D6FF3"/>
<path fill-rule="evenodd" clip-rule="evenodd" d="M32.3593 5.31193C25.8594 4.58548 19.1407 4.58548 12.6409 5.31193C8.86825 5.73357 5.82262 8.70547 5.37909 12.4977C4.60183 19.1433 4.60183 25.8568 5.37909 32.5023C5.82262 36.2946 8.86825 39.2665 12.6409 39.6881C19.1407 40.4146 25.8594 40.4146 32.3593 39.6881C36.1319 39.2665 39.1775 36.2946 39.621 32.5023C40.3983 25.8568 40.3983 19.1433 39.621 12.4977C39.1775 8.70547 36.1319 5.73357 32.3593 5.31193ZM12.9532 8.10703C19.2455 7.40378 25.7547 7.40378 32.0469 8.10703C34.5408 8.38576 36.5386 10.3538 36.8276 12.8244C37.5794 19.2529 37.5794 25.7471 36.8276 32.1756C36.5386 34.6463 34.5408 36.6143 32.0469 36.893C25.7547 37.5963 19.2455 37.5963 12.9532 36.893C10.4593 36.6143 8.46151 34.6463 8.17255 32.1756C7.42068 25.7471 7.42068 19.2529 8.17255 12.8244C8.46151 10.3538 10.4593 8.38576 12.9532 8.10703Z" fill="#5D6FF3"/>
</svg>
