<svg width="45" height="45" viewBox="0 0 45 45" fill="none" xmlns="http://www.w3.org/2000/svg">
<path fill-rule="evenodd" clip-rule="evenodd" d="M19.6644 7.10192C21.5105 5.25586 24.0143 4.21875 26.625 4.21875H31.6875C32.4642 4.21875 33.0937 4.84835 33.0937 5.625V12.375C33.0937 13.1517 32.4642 13.7812 31.6875 13.7812H26.625C26.5504 13.7812 26.4789 13.8109 26.4261 13.8636C26.3734 13.9164 26.3437 13.9879 26.3437 14.0625V17.7187H31.6875C32.1205 17.7187 32.5294 17.9183 32.7959 18.2596C33.0624 18.6009 33.1568 19.046 33.0518 19.4661L31.3643 26.2161C31.2078 26.8421 30.6453 27.2812 30 27.2812H26.3437V39.375C26.3437 40.1516 25.7142 40.7812 24.9375 40.7812H18.1875C17.4108 40.7812 16.7812 40.1516 16.7812 39.375V27.2812H13.125C12.3483 27.2812 11.7188 26.6517 11.7188 25.875V19.125C11.7188 18.3483 12.3483 17.7187 13.125 17.7187H16.7812V14.0625C16.7812 11.4518 17.8184 8.94798 19.6644 7.10192ZM26.625 7.03125C24.7602 7.03125 22.9718 7.77204 21.6532 9.09066C20.3345 10.4093 19.5938 12.1977 19.5937 14.0625V19.125C19.5937 19.9017 18.9642 20.5312 18.1875 20.5312H14.5312V24.4687H18.1875C18.9642 24.4687 19.5937 25.0983 19.5937 25.875V37.9688H23.5312V25.875C23.5312 25.0983 24.1608 24.4687 24.9375 24.4687H28.902L29.8864 20.5312H24.9375C24.1608 20.5312 23.5312 19.9017 23.5312 19.125V14.0625C23.5312 13.242 23.8572 12.4551 24.4374 11.8749C25.0176 11.2947 25.8045 10.9687 26.625 10.9687H30.2812V7.03125H26.625Z" fill="#5D6FF3"/>
</svg>
