<svg width="45" height="45" viewBox="0 0 45 45" fill="none" xmlns="http://www.w3.org/2000/svg">
<path fill-rule="evenodd" clip-rule="evenodd" d="M28.1652 6.26897C29.1185 6.10569 30.1859 6.05117 31.1905 6.22113C32.9846 6.52466 34.6418 7.35852 35.9518 8.6087C36.8081 8.62806 37.6496 8.45936 38.3943 8.21887C39.0245 8.01534 39.5568 7.76958 39.9298 7.57526C40.1153 7.47864 40.2586 7.39622 40.3518 7.34042C40.3983 7.31256 40.4321 7.29148 40.4521 7.27875L40.47 7.26738C41.0265 6.89664 41.7675 6.9688 42.2417 7.44037C42.7159 7.91205 42.7923 8.65253 42.4243 9.2111C42.0349 9.80227 41.4942 10.8562 40.8885 12.037C40.7932 12.2226 40.6964 12.4114 40.5983 12.602C40.2508 13.277 39.8946 13.9591 39.5626 14.5444C39.3541 14.9118 39.1311 15.2849 38.9063 15.6073V16.1207C38.9206 18.0062 38.7043 19.8819 38.2654 21.7067C37.9892 22.8549 37.625 23.9828 37.1745 25.0804C36.0075 27.9242 34.2855 30.5069 32.1091 32.6776C29.9328 34.8484 27.3457 36.5638 24.4989 37.7235C21.6547 38.8823 18.6083 39.4631 15.5374 39.4323C11.0855 39.4362 6.72733 38.1536 2.98723 35.7387C2.43635 35.383 2.20442 34.6938 2.42817 34.0775C2.65193 33.4611 3.27198 33.0812 3.92274 33.1617C4.48592 33.2314 5.05294 33.2654 5.62041 33.2636C7.65938 33.2579 9.65951 32.8074 11.4855 31.9586C10.9051 31.6944 10.351 31.3687 9.83318 30.9847C8.31121 29.8561 7.17888 28.2812 6.59375 26.4791C6.4417 26.0108 6.54565 25.4971 6.8678 25.1247C6.87357 25.1181 6.8794 25.1115 6.88528 25.1049C6.54116 24.7981 6.21917 24.464 5.92274 24.1047C4.58902 22.488 3.85463 20.4604 3.84379 18.3646L3.84375 18.3573L3.84377 18.2636C3.84377 17.7651 4.10768 17.3038 4.53744 17.0512C4.64638 16.9872 4.76184 16.939 4.88063 16.9067C4.24625 15.6409 3.91636 14.2432 3.91877 12.8252C3.91802 11.2188 4.33764 9.64008 5.13594 8.24601C5.3664 7.84357 5.78045 7.58063 6.24269 7.54317C6.70494 7.50571 7.15592 7.69857 7.44817 8.05865C9.25296 10.2824 11.5054 12.1017 14.0591 13.3982C15.3719 14.0646 16.7491 14.5853 18.1663 14.9536C18.9608 15.1601 19.7678 15.3187 20.583 15.4283C20.5471 14.0722 20.8149 12.7168 21.3768 11.4644C22.2013 9.62724 23.6121 8.11566 25.3882 7.16674C26.1403 6.76487 27.1388 6.44479 28.1652 6.26897ZM7.01866 20.4205C7.26175 21.1047 7.62337 21.7465 8.09223 22.3148C9.01346 23.4315 10.2921 24.1957 11.7119 24.4781C12.3443 24.6039 12.8101 25.1437 12.842 25.7877C12.874 26.4317 12.4638 27.0149 11.8469 27.2027C11.336 27.3581 10.8126 27.4665 10.2831 27.5267C10.633 27.9776 11.0445 28.3816 11.5084 28.7255C12.5606 29.5058 13.8299 29.9386 15.1396 29.9638C15.7338 29.9753 16.2567 30.3591 16.4457 30.9225C16.6348 31.486 16.4492 32.1075 15.9821 32.475C14.0149 34.0229 11.7402 35.1022 9.32976 35.6532C11.3275 36.293 13.4228 36.6224 15.5421 36.6198L15.5584 36.6198C18.2585 36.6478 20.9371 36.1377 23.4378 35.1189C25.9385 34.1001 28.2111 32.5933 30.1229 30.6864C32.0347 28.7794 33.5474 26.5107 34.5726 24.0126C34.9683 23.0485 35.2883 22.0576 35.5309 21.049C35.9168 19.4444 36.1068 17.7951 36.0938 16.1371L36.0938 16.1261V15.1323C36.0938 14.7914 36.2177 14.462 36.4424 14.2055C36.5722 14.0573 36.7995 13.715 37.1164 13.1565C37.4176 12.6256 37.7509 11.9883 38.0976 11.3148C38.1186 11.2741 38.1396 11.2332 38.1608 11.192C37.2616 11.3873 36.2423 11.4897 35.1739 11.3742C34.8356 11.3376 34.5219 11.1796 34.2912 10.9294C33.3483 9.90687 32.0927 9.22624 30.7213 8.99422C30.1128 8.89127 29.3772 8.91484 28.6401 9.04109C27.8393 9.17827 27.1423 9.4183 26.7136 9.64737C25.4868 10.3028 24.5123 11.3469 23.9428 12.6159C23.3734 13.8848 23.2413 15.3069 23.5671 16.6591C23.671 17.0902 23.5655 17.545 23.2824 17.8863C22.9993 18.2276 22.5718 18.4154 22.129 18.393C20.5476 18.313 18.9829 18.0718 17.4588 17.6757C15.8465 17.2567 14.2795 16.6643 12.7859 15.906C10.5869 14.7896 8.58434 13.3325 6.85026 11.5931C6.77116 11.9974 6.73099 12.4099 6.73127 12.8251L6.73127 12.8287C6.72931 13.8613 6.98271 14.8784 7.46892 15.7894C7.95512 16.7003 8.65904 17.4769 9.518 18.05C10.0393 18.3979 10.2675 19.0486 10.0777 19.6459C9.88783 20.2431 9.32571 20.6426 8.69927 20.6256C8.13191 20.6101 7.56929 20.5411 7.01866 20.4205Z" fill="#5D6FF3"/>
</svg>
